<svg id="Layer_1" data-name="Layer 1" xmlns="http://www.w3.org/2000/svg" viewBox="0 0 1920 1080"><defs><style>.cls-1{fill:#42aee3;}.cls-2{fill:#023e7d;}</style></defs><title>testando  cópia 30</title><path class="cls-1" d="M927,461.77h59.17v5.76H933.21V502h47.52v5.76H933.21v38H927Z"/><path class="cls-1" d="M1005.69,461.77h6.24V540h49.32v5.76h-55.57Z"/><path class="cls-1" d="M1111.29,461.17h6l39.12,84.61h-6.84l-10.68-23.52h-49.57l-10.68,23.52h-6.48Zm25,55.45L1114.17,468,1092,516.61Z"/><path class="cls-1" d="M1167,533.53l4.08-4.68c9.24,8.64,17.76,12.48,30.12,12.48,12.6,0,21.24-7.08,21.24-16.68v-.24c0-8.88-4.68-14-23.76-17.88-20.28-4.2-28.32-10.8-28.32-23.64v-.24c0-12.48,11.4-22.08,27-22.08,12.12,0,20.28,3.36,28.8,10.2l-4,4.92c-8-6.84-15.84-9.48-25.08-9.48-12.48,0-20.52,7.2-20.52,15.84v.24c0,9,4.56,14.16,24.48,18.36,19.56,4,27.6,10.8,27.6,23.16v.24c0,13.56-11.64,22.92-27.84,22.92C1187.37,547,1177,542.53,1167,533.53Z"/><path class="cls-1" d="M1249.17,461.77h6.24v38.88h53.77V461.77h6.24v84h-6.24V506.41h-53.77v39.36h-6.24Z"/><path class="cls-2" d="M1337.61,533.29l13-15.48c8.52,6.72,17.64,10.08,27.24,10.08,6.36,0,9.72-2,9.72-5.76v-.24c0-3.6-2.76-5.28-14.28-8.16-17.76-4.08-31.68-9-31.68-26.28v-.24c0-15.72,12.36-26.88,32.52-26.88,14.4,0,25.44,3.84,34.56,11.16L1397,487.93c-7.68-5.64-16-8.28-23.52-8.28-5.64,0-8.4,2.16-8.4,5.4v.24c0,3.72,2.88,5.64,14.64,8.16,19.2,4.2,31.2,10.44,31.2,26.16v.24c0,17.16-13.56,27.36-34,27.36C1362,547.21,1348.17,542.53,1337.61,533.29Z"/><path class="cls-2" d="M1454.49,461.17h22.44l35.76,84.61h-25l-6-15.12h-32.52l-6,15.12h-24.36Zm20.4,51.37-9.36-23.76-9.48,23.76Z"/><path class="cls-2" d="M1525.89,461.77h67.21v20.4h-43.92v14.28h39.72v19.32h-39.72v30h-23.28Z"/><path class="cls-2" d="M1608.81,461.77h67.57v19.68h-44.52v12.84h40.32v18.36h-40.32V526H1677v19.8h-68.17Z"/><path class="cls-2" d="M954,640.28H936.46l-3.55,12.81a2.74,2.74,0,0,1-2.78,1.93c-1.77,0-3.16-1.08-3.16-2.62a3.87,3.87,0,0,1,.23-1.23l13.65-45.44a4.52,4.52,0,0,1,8.79,0l13.73,45.36a5.72,5.72,0,0,1,.23,1.31c0,1.54-1.39,2.62-3.16,2.62a2.7,2.7,0,0,1-2.78-2.08ZM937.92,635h14.66L947,615.44l-1.77-6.71-1.77,6.71Z"/><path class="cls-2" d="M989.23,652.24V605.18a2.74,2.74,0,0,1,3-2.78h10.11c10.18,0,16.74,6.17,16.74,16.12,0,10.34-6.63,16.12-16.74,16.12h-7.1v17.59a3,3,0,0,1-6,0Zm13.12-44.44h-7.1v21.45h7.1c6.94,0,10.72-4.17,10.72-10.72S1009.28,607.8,1002.34,607.8Z"/><path class="cls-2" d="M1033.74,652.24a2.94,2.94,0,0,1-5.86,0V618.76a2.27,2.27,0,0,1,2.39-2.24,3.49,3.49,0,0,1,2.55,1.7c.54.62,1,1.23,1.7,1.23a4.64,4.64,0,0,0,1.93-1c2.39-1.54,3.63-2.31,5.86-2.31a2.74,2.74,0,1,1,0,5.48h-1.08c-3.86,0-7.48,2.7-7.48,8.1Z"/><path class="cls-2" d="M1055.65,600.47a3.72,3.72,0,0,1,3.78,3.7,3.67,3.67,0,0,1-3.78,3.7,3.72,3.72,0,0,1-3.78-3.7A3.77,3.77,0,0,1,1055.65,600.47Zm2.93,51.77a2.94,2.94,0,0,1-5.86,0V619.3a2.94,2.94,0,0,1,5.86,0Z"/><path class="cls-2" d="M1079,652.55l-11.26-32.25a3.41,3.41,0,0,1-.23-1.16,2.85,2.85,0,0,1,3-2.62,2.7,2.7,0,0,1,2.78,2l8.1,25,.93,3.09.93-3.09,8.1-25a2.7,2.7,0,0,1,2.78-2,2.85,2.85,0,0,1,3,2.62,3.41,3.41,0,0,1-.23,1.16l-11.26,32.25a3.46,3.46,0,0,1-6.63,0Z"/><path class="cls-2" d="M1130,652.93a2.15,2.15,0,0,1-2.39,2.24,3.31,3.31,0,0,1-2.39-1.54c-.54-.62-.85-1.08-1.54-1.08a4.4,4.4,0,0,0-2.16.93,11.28,11.28,0,0,1-6.17,2c-6.94,0-12.19-4.71-12.19-11.8,0-7.41,5.94-11.11,13.58-11.11h7.41v-3.24a7.78,7.78,0,0,0-7.56-8,13.06,13.06,0,0,0-5.94,1.7,5.87,5.87,0,0,1-2.31.77,2.6,2.6,0,0,1-2.62-2.62,3.24,3.24,0,0,1,2.08-2.78,20.13,20.13,0,0,1,8.79-2.31A13.25,13.25,0,0,1,1130,629.33ZM1109,643.68c0,4.24,3.24,6.56,7.56,6.56s7.64-2.47,7.64-6.79v-6.09h-7.41C1112.27,637.35,1109,639.51,1109,643.68Z"/><path class="cls-2" d="M1146.37,641.9a8,8,0,0,0,7.95,8.33,10.84,10.84,0,0,0,5.25-1.7,3.78,3.78,0,0,1,1.85-.62,2.57,2.57,0,0,1,2.55,2.55,2.93,2.93,0,0,1-1.7,2.62,14.07,14.07,0,0,1-7.95,2.39c-7.17,0-13.81-5.09-13.81-13.58V629.63c0-8.49,6.63-13.58,13.81-13.58a14.27,14.27,0,0,1,7.95,2.39,2.93,2.93,0,0,1,1.7,2.62,2.57,2.57,0,0,1-2.55,2.55,3.78,3.78,0,0,1-1.85-.62,9.86,9.86,0,0,0-5.25-1.7,8,8,0,0,0-7.95,8.33Z"/><path class="cls-2" d="M1179.08,659l2.16-5.71-11.57-32.94a3.83,3.83,0,0,1-.23-1.23,2.91,2.91,0,0,1,3-2.62,2.7,2.7,0,0,1,2.78,2l8.1,25.07.93,3.09.93-3.09,8.1-25.07a2.7,2.7,0,0,1,2.78-2,2.91,2.91,0,0,1,3,2.62,3.83,3.83,0,0,1-.23,1.23l-14.12,39.88c-1.85,5.32-5.63,9.26-9.8,9.26a2.6,2.6,0,0,1-2.85-2.7,2.7,2.7,0,0,1,2.24-2.78C1176.23,663.66,1178.08,661.65,1179.08,659Z"/><path class="cls-2" d="M1229.46,616.67c0,5.55,6,7.41,10.65,9.18,5.17,2,12.57,4.71,12.57,14.58,0,7.95-6.79,14.89-15.74,14.89a21.6,21.6,0,0,1-10.57-2.62c-1.77-.93-2.85-1.93-2.85-3.32a2.74,2.74,0,0,1,2.78-2.85c1.16,0,1.93.62,3.24,1.31a15.83,15.83,0,0,0,7.41,2.08,9.65,9.65,0,0,0,9.8-9.49c0-6-5.32-8.18-9.87-9.8-4.94-1.77-13.35-5.09-13.35-14,0-8.25,7.41-14.74,15.28-14.74a19.7,19.7,0,0,1,10.88,3.24,3.38,3.38,0,0,1,1.85,2.78,2.63,2.63,0,0,1-2.55,2.62,5.11,5.11,0,0,1-2.55-.93,14.92,14.92,0,0,0-7.64-2.31A9.37,9.37,0,0,0,1229.46,616.67Z"/><path class="cls-2" d="M1288.47,629.48v12.58a13.53,13.53,0,0,1-13.65,13.42c-7.1,0-13.66-5.25-13.66-13.42V629.48a13.38,13.38,0,0,1,13.66-13.42A13.53,13.53,0,0,1,1288.47,629.48Zm-5.86,0a7.8,7.8,0,1,0-15.58,0v12.58a7.86,7.86,0,0,0,7.79,8.18,8,8,0,0,0,7.79-8.18Z"/><path class="cls-2" d="M1305.45,652.24a2.94,2.94,0,0,1-5.86,0V602.48a2.94,2.94,0,0,1,5.86,0Z"/><path class="cls-2" d="M1338.93,642.06V619.3a2.94,2.94,0,0,1,5.86,0v33.48a2.23,2.23,0,0,1-2.31,2.31c-1.08,0-1.77-.85-2.47-1.62-.54-.62-1-1.16-1.7-1.16a4.54,4.54,0,0,0-2.16.93,13.11,13.11,0,0,1-6.87,2.24c-6.33,0-11.65-5.63-11.65-13.42V619.3a2.94,2.94,0,0,1,5.86,0v22.76c0,4.47,3.09,8.18,7.71,8.18S1338.93,646.61,1338.93,642.06Z"/><path class="cls-2" d="M1352.43,619.53a2.21,2.21,0,0,1,2-2.24l5.17-.54h.08l.93-8a2.52,2.52,0,0,1,2.55-2.08,2.17,2.17,0,0,1,2.39,2.16v7.87h7.33a2.39,2.39,0,0,1,2.55,2.55,2.35,2.35,0,0,1-2.55,2.55h-7.33v23.61c0,3,2,5,4.4,5,1,0,2.31-.62,3.39-.62a2.25,2.25,0,0,1,2.31,2.55c0,2.16-3,3.16-6,3.16a9.69,9.69,0,0,1-10-10.11V621.77h-5.25A2.1,2.1,0,0,1,1352.43,619.53Z"/><path class="cls-2" d="M1386.84,600.47a3.72,3.72,0,0,1,3.78,3.7,3.67,3.67,0,0,1-3.78,3.7,3.72,3.72,0,0,1-3.78-3.7A3.77,3.77,0,0,1,1386.84,600.47Zm2.93,51.77a2.94,2.94,0,0,1-5.86,0V619.3a2.94,2.94,0,0,1,5.86,0Z"/><path class="cls-2" d="M1428.19,629.48v12.58a13.53,13.53,0,0,1-13.65,13.42c-7.1,0-13.66-5.25-13.66-13.42V629.48a13.38,13.38,0,0,1,13.66-13.42A13.53,13.53,0,0,1,1428.19,629.48Zm-5.86,0a7.8,7.8,0,1,0-15.58,0v12.58a7.86,7.86,0,0,0,7.79,8.18,8,8,0,0,0,7.79-8.18Z"/><path class="cls-2" d="M1445,652.24a2.94,2.94,0,0,1-5.86,0v-33.4a2.23,2.23,0,0,1,2.31-2.31,3,3,0,0,1,2.39,1.39c.54.62,1,1.23,1.7,1.23a3.68,3.68,0,0,0,1.93-.77,13.08,13.08,0,0,1,7.33-2.31c5.86,0,11.5,5.4,11.5,13.35v22.84a2.94,2.94,0,0,1-5.86,0V629.4c0-4.55-3.24-8.1-7.71-8.1s-7.71,3.47-7.71,8.1Z"/><path class="cls-2" d="M1502.09,652.24a3,3,0,0,1-6,0V605.18a2.78,2.78,0,0,1,3-2.78h21.22a2.7,2.7,0,0,1,0,5.4h-18.21v18.44h15.66a2.7,2.7,0,0,1,0,5.4h-15.66Z"/><path class="cls-2" d="M1554.32,652.93a2.15,2.15,0,0,1-2.39,2.24,3.31,3.31,0,0,1-2.39-1.54c-.54-.62-.85-1.08-1.54-1.08a4.4,4.4,0,0,0-2.16.93,11.28,11.28,0,0,1-6.17,2c-6.94,0-12.19-4.71-12.19-11.8,0-7.41,5.94-11.11,13.58-11.11h7.41v-3.24a7.78,7.78,0,0,0-7.56-8A13.06,13.06,0,0,0,1535,623a5.87,5.87,0,0,1-2.31.77,2.6,2.6,0,0,1-2.62-2.62,3.24,3.24,0,0,1,2.08-2.78,20.13,20.13,0,0,1,8.79-2.31,13.25,13.25,0,0,1,13.42,13.27Zm-21.06-9.26c0,4.24,3.24,6.56,7.56,6.56s7.64-2.47,7.64-6.79v-6.09h-7.41C1536.58,637.35,1533.26,639.51,1533.26,643.68Z"/><path class="cls-2" d="M1585.56,628.71c0-4.4-2.93-7.48-6.56-7.48a7.29,7.29,0,0,0-7.25,7.48v23.53a2.94,2.94,0,0,1-5.86,0V618.76a2.25,2.25,0,0,1,2.47-2.24c2,0,2.39,2.7,4,2.7,1.47,0,4-3.16,8.26-3.16,3.24,0,4.94,1.16,6.87,2.85.54.46,1.31,1.39,2.16,1.39,1.85,0,4.4-4.24,10.18-4.24,6.48,0,11.26,4.94,11.26,12.65v23.53a2.94,2.94,0,0,1-5.86,0V628.71c0-4.55-2.85-7.48-6.87-7.48a7.15,7.15,0,0,0-6.94,7.48v23.53a2.94,2.94,0,0,1-5.86,0Z"/><path class="cls-2" d="M1625.76,600.47a3.72,3.72,0,0,1,3.78,3.7,3.67,3.67,0,0,1-3.78,3.7,3.72,3.72,0,0,1-3.78-3.7A3.77,3.77,0,0,1,1625.76,600.47Zm2.93,51.77a2.94,2.94,0,0,1-5.86,0V619.3a2.94,2.94,0,0,1,5.86,0Z"/><path class="cls-2" d="M1646.89,652.24a2.94,2.94,0,0,1-5.86,0V602.48a2.94,2.94,0,0,1,5.86,0Z"/><path class="cls-2" d="M1665.49,659l2.16-5.71-11.57-32.94a3.83,3.83,0,0,1-.23-1.23,2.91,2.91,0,0,1,3-2.62,2.7,2.7,0,0,1,2.78,2l8.1,25.07.93,3.09.93-3.09,8.1-25.07a2.7,2.7,0,0,1,2.78-2,2.91,2.91,0,0,1,3,2.62,3.83,3.83,0,0,1-.23,1.23l-14.12,39.88c-1.85,5.32-5.63,9.26-9.8,9.26a2.6,2.6,0,0,1-2.85-2.7,2.7,2.7,0,0,1,2.24-2.78C1662.63,663.66,1664.48,661.65,1665.49,659Z"/><path class="cls-2" d="M595.54,520.86c-27.27,60.15,94.34,47,101,93.25-6.24-53.13-109.84-39.81-101-93.25Zm87.11-23.72a145.3,145.3,0,0,0-29.43-23.38c12.61,10.76,17.83,21.36,17.66,32.13,4,1.36,7.91,2.84,12,4.33,2,.73,2.5-1.24,2.44-2.45-.21-3.89,0-8-2.62-10.63ZM507,737.46c14,29.26,46,42.39,52.92,42.87-36.44-27-77-111.85-37.49-238.49C488.07,609.63,490.85,703.66,507,737.46ZM634.86,428.59c4.09-12.31,14.47-25.21,14.47-25.21-26.49,5.89-39.65,24.36-39.65,24.36-47.84-76.2-220.58-47.11-220.58,71.34,2.61-8.68,17.06-29.67,35-26.53-.24,63.29-82.46,61.1-92.35,49.75,27.72,31.83,51.33,30.51,70.16,21.41-22.75,38.51-63.11,49.73-98.47,28.83a85.3,85.3,0,0,0,22.3,36.3c26.43,25,59.67,18.43,79.41-12C462.6,508,491.6,482.88,530.29,481.69c-113.39,33.93-83,282.44-246.21,152.46A549.23,549.23,0,0,1,275,532.24V389.55a22.13,22.13,0,0,1,13.63-20.41l254.22-105.3,254.22,105.3a22.13,22.13,0,0,1,13.64,20.42V532.24c0,78-14.25,146.22-42.35,206.27a403.31,403.31,0,0,1-47.5,77.66c-39.09,0-225.2-139.54-136.29-234.87,16.12,34.36,64.92,11.47,103.19,51.78,19.5,27.06,47.45,16.88,64-.66C765.1,618.29,766.62,596,746.65,578c-21.68-17.81-33-35.43-45.31-62.6,10.27-23.31-17.77-41.8-38.13-55.36-4.51-10.13-3.54-14.59-1.55-20.6,4.63-13.93,16.38-28.54,16.38-28.54C650.55,417,635.8,435.06,633.51,438,633.07,434.46,633.8,431.77,634.86,428.59Z"/></svg>